<svg width="200" height="15" viewBox="0 0 200 15" fill="none" xmlns="http://www.w3.org/2000/svg">
<path d="M89.7797 0.269197C90.5868 0.16132 91.4278 0.233231 92.2469 0.311142C102.437 1.28004 99.5346 17.078 88.7768 14.0375C81.6869 12.0338 82.4101 1.25208 89.7817 0.267198H89.7797V0.269197ZM90.0334 1.1342C84.244 2.23095 85.3547 13.8417 92.169 13.3643C98.24 12.9387 96.8257 -0.152331 90.0334 1.1342Z" fill="#BDB8AE"/>
<path d="M174.322 0.269075C175.129 0.161198 175.97 0.233109 176.789 0.31102C186.979 1.27992 184.077 17.0779 173.319 14.0374C166.229 12.0336 166.952 1.25195 174.324 0.267076H174.322V0.269075ZM174.573 1.13408C168.784 2.23083 169.895 13.8416 176.709 13.3641C182.78 12.9386 181.366 -0.152453 174.573 1.13408Z" fill="#BDB8AE"/>
<path d="M186.761 0.0507089L197.007 10.5148V1.59297C197.007 0.512201 194.975 1.44113 194.975 0.460252H200C200 1.32926 198.302 0.510204 198.302 1.59297V14.5122C198.302 14.6621 198.12 14.738 198.014 14.6301L187.756 4.20798V12.8601C187.756 14.0088 189.723 13.1458 189.723 14.0587L184.877 14.0647C184.877 13.1498 186.473 13.9988 186.473 12.8601V0.168592C186.473 0.0187629 186.655 -0.0571681 186.761 0.0507089Z" fill="#BDB8AE"/>
<path d="M56.6194 0.469331C58.6431 0.469331 60.5629 1.47218 60.5629 3.85746C60.5629 6.24274 58.1157 7.71108 58.1157 7.71108L62.7124 13.067C63.6933 14.1098 64.9319 13.4126 64.9319 14.0658C64.9319 14.0658 63.8511 14.0858 61.6756 14.0858C60.0615 14.0858 56.4955 8.50817 56.4955 8.50817L54.5457 8.52014V12.8272C54.5457 13.9639 56.3557 13.3147 56.2758 14.0558H50.9359C50.9359 13.2967 52.3702 13.926 52.3702 12.9191C52.3702 11.9123 52.4561 3.1303 52.4561 1.74188C52.4561 0.353463 50.6941 1.21248 50.772 0.465332M54.5437 1.4542V7.41142C54.5437 7.41142 57.2786 8.22647 58.0517 6.4465C59.2324 3.7256 58.0398 0.774969 54.5437 1.4542Z" fill="#BDB8AE"/>
<path d="M14.6054 14.0604C14.6054 14.0604 11.0075 14.0324 10.0286 14.0604C10.0286 13.539 10.5939 13.7068 10.4721 13.4131L8.89586 9.41373L4.63273 9.38776L3.25429 13.1355C3.01856 13.8566 4.59477 13.4951 4.59477 14.0584H0C0 13.4371 1.35046 13.9485 1.75999 13.0356C1.75999 13.0356 6.92811 0.669691 6.98804 0.493891C7.08193 0.218205 7.35362 0.216208 7.48747 0.493891C7.62132 0.773572 10.9016 8.80042 12.3599 12.3544C13.2289 14.476 14.6054 13.3273 14.6054 14.0564V14.0604ZM8.64415 8.5467L6.7583 3.66428L4.97833 8.5447H8.64615H8.64415V8.5467Z" fill="#BDB8AE"/>
<path d="M50.4706 14.0602C50.4706 14.0602 46.8727 14.0322 45.8938 14.0602C45.8938 13.5388 46.4592 13.7066 46.3373 13.4129L44.7611 9.41348L40.498 9.38751L39.1195 13.1352C38.8838 13.8564 40.46 13.4948 40.46 14.0582H35.8652C35.8652 13.4369 37.2157 13.9483 37.6252 13.0353C37.6252 13.0353 42.7933 0.669446 42.8533 0.493647C42.9472 0.217961 43.2189 0.215963 43.3527 0.493647C43.4865 0.773328 46.7668 8.80018 48.2252 12.3541C49.0942 14.4757 50.4706 13.327 50.4706 14.0562V14.0602ZM44.5094 8.54645L42.6235 3.66403L40.8436 8.54445H44.5114H44.5094V8.54645Z" fill="#BDB8AE"/>
<path d="M81.8651 0.72115L81.8591 4.21117C81.1579 4.20517 81.7392 3.79163 81.02 2.59899C80.3828 1.54219 78.4609 1.12868 77.6758 1.08672C69.3353 0.647225 70.492 14.6593 79.284 13.2509C79.7994 13.169 80.2669 12.9991 80.6844 12.6855C81.3217 12.206 81.3976 10.7937 82.0369 10.7237L81.5594 13.6924C76.7809 15.3525 69.5371 13.8622 69.5371 7.27966C69.5371 0.271652 75.9578 -0.543407 81.8691 0.723149H81.8651V0.72115Z" fill="#BDB8AE"/>
<path d="M145.693 0.721394L145.687 4.21141C144.986 4.20542 145.567 3.79187 144.848 2.59923C144.211 1.54244 142.289 1.12892 141.504 1.08697C133.164 0.647469 134.32 14.6595 143.112 13.2511C143.628 13.1692 144.095 12.9994 144.513 12.6857C145.15 12.2063 145.226 10.7939 145.865 10.724L145.388 13.6926C140.609 15.3527 133.365 13.8624 133.365 7.27991C133.365 0.271896 139.786 -0.543163 145.697 0.723393H145.693V0.721394Z" fill="#BDB8AE"/>
<path d="M130.91 0.24707L130.599 3.15374C129.859 3.04587 130.589 1.46168 129.212 1.46168C128.591 1.46168 126.345 1.45368 126.345 1.45368V6.31415H129.63C130.183 6.31415 130.493 5.60095 130.493 5.60095L130.351 8.8952C129.76 8.8952 129.865 7.2351 129.244 7.2351H126.347V11.9178C126.347 12.3572 126.785 13.1623 127.616 13.1623C128.447 13.1623 128.837 13.1504 129.458 13.1504C130.996 13.1504 130.583 11.0368 131.288 11.1826L131.072 14.0653H122.43C122.43 13.2522 123.986 14.1013 123.986 12.8447V1.51762C123.986 0.468815 122.244 1.41773 122.244 0.468815H129.722C130.369 0.468815 130.91 0.24707 130.91 0.24707Z" fill="#BDB8AE"/>
<path d="M24.8152 0.276106V3.02497C23.9322 3.02497 25.2168 1.55865 23.1212 1.55865H20.0866V13.1175C20.0866 13.8287 22.1423 13.3872 22.1423 14.0584H16.289C16.289 13.3872 17.8532 13.9226 17.8532 13.1175V1.45477H14.6468C13.3563 1.45477 13.4901 2.89314 12.741 2.89314L13.2564 0.0683594C13.2564 0.0683594 13.8517 0.545818 14.7227 0.545818H24.0401C24.3158 0.545818 24.8152 0.278106 24.8152 0.278106V0.276106Z" fill="#BDB8AE"/>
<path d="M37.5254 0.276106V3.02497C36.6424 3.02497 37.9269 1.55865 35.8313 1.55865H32.7968V13.1175C32.7968 13.8287 34.8524 13.3872 34.8524 14.0584H28.9991C28.9991 13.3872 30.5633 13.9226 30.5633 13.1175V1.45477H27.357C26.0664 1.45477 26.2003 2.89314 25.4511 2.89314L25.9666 0.0683594C25.9666 0.0683594 26.5619 0.545818 27.4329 0.545818H36.7503C37.026 0.545818 37.5254 0.278106 37.5254 0.278106V0.276106Z" fill="#BDB8AE"/>
<path d="M159.003 0.276106V3.02497C158.12 3.02497 159.405 1.55865 157.309 1.55865H154.274V13.1175C154.274 13.8287 156.33 13.3872 156.33 14.0584H150.477C150.477 13.3872 152.041 13.9226 152.041 13.1175V1.45477H148.835C147.544 1.45477 147.678 2.89314 146.929 2.89314L147.444 0.0683594C147.444 0.0683594 148.039 0.545818 148.91 0.545818H158.228C158.504 0.545818 159.003 0.278106 159.003 0.278106V0.276106Z" fill="#BDB8AE"/>
<path d="M100.771 14.0625C100.771 13.3034 102.165 14.1504 102.165 12.6941V1.42291C102.165 0.535922 100.577 1.2771 100.577 0.468018H106.279C106.279 1.08931 104.531 0.567885 104.531 1.42291V11.4515C104.531 12.6681 105.196 13.0776 105.951 13.0776H108.578C109.529 13.0776 109.409 11.1498 110.036 11.2877L109.603 14.0625H100.769H100.771Z" fill="#BDB8AE"/>
<path d="M111.737 14.0625C111.737 13.3034 113.131 14.1504 113.131 12.6941V1.42291C113.131 0.535922 111.543 1.2771 111.543 0.468018H117.244C117.244 1.08931 115.496 0.567885 115.496 1.42291V11.4515C115.496 12.6681 116.162 13.0776 116.917 13.0776H119.544C120.495 13.0776 120.375 11.1498 121.002 11.2877L120.569 14.0625H111.735H111.737Z" fill="#BDB8AE"/>
<path d="M166.189 0.474731C166.189 1.31377 164.692 0.50272 164.692 1.41967C164.692 2.33663 164.78 12.1175 164.78 13.0444C164.78 13.9714 166.578 13.2961 166.578 14.0553H160.839C160.839 13.41 162.339 13.8315 162.339 13.0444C162.339 11.9037 162.393 2.47447 162.393 1.41967C162.393 0.364877 160.839 1.33775 160.839 0.474731H166.189Z" fill="#BDB8AE"/>
</svg>